<svg xmlns="http://www.w3.org/2000/svg" width="684" height="124" fill="none"><path fill="#1B47F7" d="M179.735 122.09V30.523h13.655v91.567h-13.655Zm0-108.234V0h13.655v13.856h-13.655Zm-37.753 18.272V6.023h13.654v26.105h13.856v12.25h-13.856v58.032c0 1.607.603 3.013 1.808 4.217 1.205 1.205 2.61 1.808 4.217 1.808h7.831v13.654h-12.249c-4.15 0-7.765-1.472-10.844-4.417-2.945-3.079-4.417-6.694-4.417-10.844v-62.45h-12.25v-12.25h12.25ZM49.786 97.592c0-7.764 3.547-14.19 10.642-19.277 6.426-4.552 14.325-7.23 23.696-8.032 6.56-.536 11.512-1.54 14.86-3.013 4.685-1.874 7.027-4.953 7.027-9.237 0-4.685-1.807-8.634-5.421-11.847-3.615-3.213-7.899-4.82-12.852-4.82-5.22 0-9.772 1.54-13.655 4.619-4.016 3.213-6.024 7.229-6.024 12.048v3.012H54.203v-6.024c0-7.764 3.481-14.123 10.442-19.076 6.426-4.552 14.124-6.828 23.093-6.828 8.568 0 15.998 2.343 22.29 7.028 6.559 4.954 9.839 11.246 9.839 18.876v45.784c0 2.544.937 4.685 2.811 6.426 1.741 1.74 3.883 2.61 6.426 2.61v12.249h-5.422c-3.614 0-6.894-.937-9.839-2.811-2.945-2.008-5.02-4.618-6.225-7.831-2.811 4.15-6.761 7.229-11.848 9.237-4.685 1.874-9.84 2.811-15.462 2.811-9.237 0-16.6-2.343-22.089-7.028-5.622-4.686-8.433-10.978-8.433-18.876Zm13.654 0c0 3.882 1.74 7.095 5.221 9.639 3.213 2.276 7.096 3.414 11.647 3.414 6.961 0 12.919-2.075 17.872-6.225 5.221-4.15 7.831-9.438 7.831-15.864v-12.25c-3.748 3.08-10.575 5.02-20.482 5.824l-3.815.2c-4.953.402-9.17 1.942-12.651 4.62-3.748 2.81-5.623 6.358-5.623 10.642ZM0 122.089V32.128h13.655v15.864c2.008-5.49 5.622-9.773 10.843-12.852 4.954-3.079 10.51-4.619 16.667-4.619h6.025v13.856h-6.025c-7.764 0-14.324 3.08-19.679 9.237-5.22 5.89-7.831 12.986-7.831 21.286v47.189H0Z"/><path fill="#1B47F7" fill-rule="evenodd" d="M206.031 76.356c0-14.309 3.765-25.743 11.295-34.301 7.53-8.559 17.548-12.838 30.054-12.838.31 0 .619.002.926.008l-.013-.008h118.661v94.278H248.293l.007-.008c-.305.006-.612.008-.92.008-12.506 0-22.524-4.279-30.054-12.838-7.53-8.558-11.295-19.992-11.295-34.301Zm13.716 0c0 10.565 2.487 19.056 7.463 25.475 5.109 6.419 11.833 9.629 20.17 9.629 8.337 0 15.06-3.21 20.17-9.629 4.976-6.419 7.463-14.91 7.463-25.475 0-10.565-2.487-18.99-7.463-25.275-5.11-6.419-11.833-9.628-20.17-9.628-8.337 0-15.061 3.21-20.17 9.628-4.976 6.286-7.463 14.71-7.463 25.275Zm120.46-35.075h-14.474v14.474h14.474v57.899h14.475V41.281h-14.475Z" clip-rule="evenodd"/><path stroke="#1B47F7" stroke-width="5.689" d="M642.478 121.155H382.845v-89.31h259.633c12.925 0 22.49 5.501 28.895 13.744 6.465 8.32 9.782 19.547 9.782 30.911s-3.317 22.591-9.782 30.911c-6.405 8.243-15.97 13.744-28.895 13.744Z"/><path fill="#1B47F7" d="M608.733 58.195h6.194l13.571 32.881 12.115-32.88h6.193l-18.034 47.727c-.79 2.186-2.217 3.886-4.281 5.101-2.004 1.214-4.251 1.821-6.74 1.821h-4.19v-5.556h4.19c1.882 0 3.522-.85 4.918-2.55 1.215-1.457 2.125-3.37 2.733-5.738l-16.669-40.806Zm-39.101 20.038c0-6.498 1.701-11.69 5.101-15.576 3.4-3.886 7.924-5.829 13.571-5.829 5.648 0 10.202 1.943 13.663 5.83 3.4 3.886 5.101 9.077 5.101 15.575 0 6.497-1.701 11.689-5.101 15.575-3.461 3.886-8.015 5.83-13.663 5.83-5.647 0-10.171-1.944-13.571-5.83-3.4-3.886-5.101-9.078-5.101-15.575Zm6.194 0c0 4.797 1.123 8.653 3.37 11.567 2.308 2.915 5.344 4.372 9.108 4.372 3.765 0 6.801-1.457 9.109-4.372 2.246-2.914 3.37-6.77 3.37-11.567 0-4.797-1.124-8.623-3.37-11.477-2.308-2.914-5.344-4.372-9.109-4.372-3.764 0-6.8 1.458-9.108 4.372-2.247 2.854-3.37 6.68-3.37 11.477ZM557.695 99V43.62h6.193V99h-6.193Zm-40.135 13.845v-54.65h6.193v5.83a12.667 12.667 0 0 1 4.737-4.737 11.796 11.796 0 0 1 6.375-1.821c5.04 0 9.23 2.125 12.57 6.376 3.157 4.007 4.736 8.804 4.736 14.39 0 5.587-1.579 10.384-4.736 14.392-3.34 4.25-7.53 6.376-12.57 6.376-2.307 0-4.432-.607-6.375-1.822a12.667 12.667 0 0 1-4.737-4.736v20.402h-6.193Zm6.193-34.611c0 4.068.941 7.56 2.824 10.474 2.125 3.158 4.888 4.737 8.288 4.737 3.401 0 6.133-1.58 8.198-4.737 1.882-2.914 2.823-6.406 2.823-10.474 0-4.069-.941-7.56-2.823-10.475-2.065-3.157-4.797-4.736-8.198-4.736-3.4 0-6.163 1.579-8.288 4.736-1.883 2.915-2.824 6.406-2.824 10.475Zm-46.152-.001c0-6.498 1.579-11.69 4.736-15.576 3.158-3.886 7.348-5.829 12.57-5.829s9.412 1.943 12.569 5.83c3.158 3.886 4.737 9.077 4.737 15.575v2.095h-28.418c0 4.19 1.002 7.53 3.005 10.019 2.065 2.55 4.767 3.825 8.107 3.825 2.915 0 5.313-.759 7.195-2.277 1.883-1.518 2.946-3.522 3.188-6.011h6.194c-.364 4.19-2.064 7.53-5.101 10.019-2.975 2.49-6.8 3.734-11.476 3.734-5.222 0-9.412-1.943-12.57-5.829-3.157-3.886-4.736-9.078-4.736-15.575Zm6.194-3.462h22.133c-.304-3.764-1.457-6.77-3.461-9.017-2.004-2.246-4.524-3.37-7.56-3.37-3.036 0-5.556 1.124-7.56 3.37-2.065 2.247-3.249 5.253-3.552 9.017Zm-43.966 3.462c0-6.498 1.578-11.69 4.736-15.576 3.158-3.886 7.347-5.829 12.569-5.829 5.223 0 9.412 1.943 12.57 5.83 3.157 3.886 4.736 9.077 4.736 15.575v2.095h-28.418c0 4.19 1.002 7.53 3.006 10.019 2.065 2.55 4.767 3.825 8.106 3.825 2.915 0 5.314-.759 7.196-2.277 1.882-1.518 2.945-3.522 3.188-6.011h6.194c-.365 4.19-2.065 7.53-5.101 10.019-2.975 2.49-6.801 3.734-11.477 3.734-5.222 0-9.411-1.943-12.569-5.829-3.158-3.886-4.736-9.078-4.736-15.575Zm6.193-3.462h22.134c-.304-3.764-1.458-6.77-3.462-9.017-2.003-2.246-4.523-3.37-7.56-3.37-3.036 0-5.556 1.124-7.559 3.37-2.065 2.247-3.249 5.253-3.553 9.017Zm-46.654 3.462c0-5.587 1.579-10.384 4.736-14.391 3.279-4.251 7.439-6.376 12.479-6.376a11.8 11.8 0 0 1 6.376 1.821 12.664 12.664 0 0 1 4.736 4.737V43.62h6.285V99h-6.285v-6.558c-1.214 2.125-2.763 3.825-4.645 5.1-2.065 1.397-4.22 2.095-6.467 2.095-5.101 0-9.291-2.216-12.57-6.649-3.096-4.129-4.645-9.047-4.645-14.755Zm6.194 0c0 4.19.911 7.742 2.732 10.656 2.065 3.28 4.828 4.919 8.289 4.919 3.461 0 6.224-1.64 8.288-4.919 1.883-2.914 2.824-6.466 2.824-10.656 0-4.069-.941-7.56-2.824-10.475-2.125-3.157-4.888-4.736-8.288-4.736-3.401 0-6.133 1.579-8.198 4.736-1.882 2.915-2.823 6.406-2.823 10.475Z"/></svg>