<svg xmlns="http://www.w3.org/2000/svg" viewBox="0 0 512 512">
  <path fill="#FC6D26" d="M503.5 204.6L502.8 202.8L433.1 21C431.7 17.5 429.2 14.5 425.9 12.4C422.6 10.3 418.8 9.2 414.8 9.2C410.8 9.2 406.9 10.3 403.6 12.5C400.3 14.6 397.7 17.7 396.3 21.2L346.5 168.5H165.5L115.7 21.2C114.3 17.7 111.7 14.6 108.4 12.5C105.1 10.3 101.2 9.2 97.2 9.2C93.2 9.2 89.3 10.3 86.1 12.4C82.8 14.5 80.3 17.5 78.9 21L9.2 202.8L8.5 204.6C-7.3 250.7 0.4 301.3 30.5 340.6L30.8 341L31.7 342.1L163.6 452.6L227.2 502.8C232 506.5 237.9 508.5 243.9 508.5H268.1C274.2 508.5 280 506.5 284.8 502.8L348.4 452.6L480.8 341.7L481.3 341.1C511.1 301.8 518.7 251.4 503.5 204.6Z"/>
  <path fill="#E24329" d="M503.5 204.6L502.8 202.8C466.7 212.4 432.2 227.3 400.8 246.7L256 351.3C291.5 376.8 348.4 452.6 348.4 452.6L480.8 341.7L481.3 341.1C511.1 301.8 518.7 251.4 503.5 204.6Z"/>
  <path fill="#FC6D26" d="M163.6 452.6L227.2 502.8C232 506.5 237.9 508.5 243.9 508.5H268.1C274.2 508.5 280 506.5 284.8 502.8L348.4 452.6C348.4 452.6 291.5 376.8 256 351.3L163.6 452.6Z"/>
  <path fill="#FCA326" d="M111.2 246.7C79.8 227.3 45.3 212.4 9.2 202.8L8.5 204.6C-7.3 250.7 0.4 301.3 30.5 340.6L30.8 341L31.7 342.1L163.6 452.6L256 351.3L111.2 246.7Z"/>
</svg>
